<?xml version="1.0" standalone="no"?>
<!DOCTYPE svg PUBLIC "-//W3C//DTD SVG 20010904//EN"
 "http://www.w3.org/TR/2001/REC-SVG-20010904/DTD/svg10.dtd">
<svg version="1.0" xmlns="http://www.w3.org/2000/svg"
 width="874.000000pt" height="874.000000pt" viewBox="0 0 874.000000 874.000000"
 preserveAspectRatio="xMidYMid meet">
<metadata>
Created by potrace 1.14, written by Peter Selinger 2001-2017
</metadata>
<g transform="translate(0.000000,874.000000) scale(0.100000,-0.100000)"
fill="#000000" stroke="none">
<path d="M3236 7462 c-2 -2 -37 -5 -77 -8 -90 -6 -156 -12 -189 -18 -14 -3
-43 -8 -65 -11 -72 -11 -80 -13 -112 -19 -18 -3 -63 -13 -100 -22 -38 -9 -75
-17 -83 -19 -8 -2 -15 -4 -15 -5 0 -1 -9 -3 -20 -5 -76 -13 -333 -102 -452
-156 -24 -10 -47 -19 -53 -19 -5 0 -10 -4 -10 -10 0 -5 -5 -10 -11 -10 -27 0
-369 -187 -423 -231 -6 -5 -54 -39 -106 -76 -52 -37 -97 -69 -100 -72 -3 -4
-21 -19 -40 -35 -164 -132 -352 -320 -480 -481 -65 -80 -140 -185 -140 -194 0
-5 -4 -11 -8 -13 -28 -11 -269 -441 -297 -528 -3 -8 -16 -44 -25 -65 -39 -96
-70 -183 -70 -196 0 -9 -3 -19 -7 -23 -5 -4 -9 -12 -9 -17 -1 -5 -2 -10 -4
-11 -1 -2 -3 -10 -5 -18 -6 -25 -14 -52 -31 -115 -21 -80 -25 -97 -48 -215
-17 -86 -28 -157 -40 -260 -5 -38 -19 -295 -18 -325 3 -108 13 -296 16 -315 3
-14 8 -50 11 -80 3 -30 7 -66 10 -80 2 -13 7 -42 10 -65 4 -22 10 -56 15 -76
6 -19 11 -48 14 -65 2 -16 6 -36 9 -44 3 -8 10 -37 17 -65 7 -27 16 -61 20
-75 9 -27 43 -142 45 -150 2 -6 7 -20 62 -160 48 -120 171 -373 185 -378 4 -2
8 -8 8 -13 0 -6 16 -35 35 -65 19 -30 35 -56 35 -59 0 -10 167 -235 233 -315
69 -83 261 -280 342 -351 299 -261 684 -480 1063 -605 87 -28 281 -79 335 -88
20 -3 56 -10 79 -15 24 -5 68 -12 98 -16 30 -3 62 -8 70 -10 96 -24 651 -24
750 0 8 2 40 7 70 10 142 17 493 106 605 155 11 5 59 25 107 44 279 113 573
294 814 501 135 116 373 372 431 463 10 15 23 33 30 40 36 38 165 246 225 362
23 47 46 87 51 88 4 2 7 8 7 14 0 5 14 39 30 75 17 35 30 66 30 67 0 2 7 20
15 40 l16 37 35 -43 c20 -24 43 -52 52 -63 10 -11 24 -31 33 -45 36 -55 66
-76 103 -72 l35 4 -48 62 c-26 33 -64 84 -85 111 -20 28 -45 59 -55 70 -60 66
-47 104 78 231 52 52 91 97 88 100 -3 3 -20 6 -38 6 -22 1 -39 -6 -53 -23 -50
-57 -54 -54 -34 24 10 39 20 86 23 102 2 17 7 44 10 60 3 17 10 54 15 84 6 30
11 55 12 57 2 1 26 4 53 7 96 10 126 20 200 69 93 61 163 166 183 276 13 71 1
323 -23 477 -3 22 -8 54 -10 70 -15 101 -17 112 -30 175 -3 14 -7 34 -9 45
-27 127 -89 329 -152 492 -65 168 -232 502 -255 511 -5 2 -9 8 -9 13 0 25
-193 294 -304 424 -61 71 -272 285 -336 340 -44 39 -216 173 -255 201 -17 11
-59 41 -95 65 -36 25 -72 48 -80 52 -8 4 -49 28 -90 52 -241 144 -593 286
-870 350 -67 16 -213 45 -250 50 -25 3 -56 8 -70 10 -14 2 -52 7 -85 10 -33 4
-78 9 -100 12 -45 6 -434 11 -439 5z m284 -636 c130 -13 298 -42 410 -72 52
-14 100 -26 105 -27 23 -6 122 -39 140 -47 11 -4 47 -19 80 -31 177 -68 485
-246 628 -363 32 -26 68 -55 80 -64 29 -23 266 -260 297 -297 89 -106 210
-279 266 -378 68 -120 185 -375 199 -432 1 -5 5 -17 8 -25 19 -52 72 -247 81
-300 3 -19 7 -44 10 -55 2 -11 7 -40 11 -65 3 -25 8 -56 11 -70 10 -67 16
-169 19 -325 3 -181 12 -230 60 -310 41 -66 112 -133 175 -162 47 -22 122 -43
131 -37 12 7 5 -33 -28 -166 -13 -52 -26 -106 -29 -120 -3 -14 -14 -49 -24
-77 -11 -29 -18 -53 -15 -53 13 0 -31 -60 -85 -116 -34 -35 -63 -64 -65 -64
-1 0 -3 60 -2 133 0 74 -3 138 -6 144 -3 5 -20 8 -37 5 l-31 -4 1 -300 1 -299
-27 -47 c-32 -54 -137 -214 -168 -255 -167 -218 -362 -417 -541 -555 -17 -12
-52 -39 -80 -60 -27 -20 -51 -40 -53 -44 -2 -5 -7 -8 -12 -8 -4 0 -34 -18 -66
-39 -33 -21 -79 -51 -104 -65 -51 -30 -301 -155 -346 -173 -145 -59 -247 -93
-380 -128 -97 -24 -115 -29 -174 -40 -14 -3 -36 -7 -50 -10 -14 -3 -45 -8 -70
-11 -25 -3 -56 -7 -69 -9 -154 -25 -572 -25 -711 0 -14 2 -43 6 -65 9 -22 3
-67 10 -100 16 -33 7 -69 13 -80 15 -30 5 -195 49 -263 70 -7 3 -14 5 -17 5
-8 1 -139 50 -160 60 -11 5 -47 20 -81 34 -118 48 -395 198 -402 217 -2 5 -8
9 -13 9 -11 0 -113 71 -117 82 -2 5 -8 8 -14 8 -5 0 -33 19 -61 42 -189 155
-331 295 -462 459 -246 306 -418 649 -515 1024 -18 66 -33 127 -34 135 -7 33
-16 87 -21 125 -4 22 -8 51 -11 65 -25 129 -25 608 0 735 2 11 7 43 11 70 5
28 9 52 10 55 1 3 5 25 9 50 5 25 10 54 12 65 2 11 20 74 39 140 38 129 39
131 48 158 4 9 10 25 14 35 3 9 7 22 9 27 3 15 73 175 81 189 4 6 8 13 8 16 2
16 86 168 141 255 183 292 428 558 689 746 63 46 185 129 189 129 2 0 41 22
87 48 133 77 291 148 439 198 47 15 88 29 93 30 4 1 8 2 10 4 1 1 9 3 17 5 30
7 60 15 78 20 52 13 214 46 257 51 28 4 53 8 56 10 4 2 56 7 115 10 60 4 110
7 111 8 5 4 299 -3 353 -8z m2501 -3760 c-16 -36 -32 -66 -34 -66 -2 0 -5 21
-6 46 -1 41 3 50 31 76 18 16 34 25 36 19 2 -5 -10 -39 -27 -75z"/>
<path d="M2981 6689 c-73 -20 -106 -38 -164 -89 -49 -43 -105 -129 -127 -194
-93 -281 90 -596 355 -610 73 -4 184 18 197 38 4 6 8 8 8 4 0 -8 91 29 100 40
3 4 21 19 41 34 20 15 50 49 68 75 17 26 34 53 38 58 5 6 10 17 12 25 2 8 11
42 21 75 15 57 18 140 7 212 -6 33 -53 148 -72 171 -74 95 -174 159 -265 168
-14 1 -25 3 -25 3 0 10 -151 2 -194 -10z"/>
<path d="M2661 5650 c-24 -11 -48 -20 -54 -20 -13 0 -125 -67 -145 -87 -7 -7
-18 -13 -23 -13 -5 0 -19 -9 -31 -20 -12 -11 -28 -20 -35 -20 -7 0 -13 -4 -13
-10 0 -5 -6 -10 -14 -10 -8 0 -16 -3 -18 -7 -1 -5 -43 -35 -93 -68 -49 -32
-94 -63 -100 -67 -12 -10 -108 -75 -185 -125 -108 -71 -268 -257 -295 -342 -4
-13 -14 -40 -23 -60 -9 -20 -16 -38 -17 -41 -1 -3 -6 -16 -12 -30 -5 -14 -29
-77 -53 -140 -23 -63 -46 -119 -51 -124 -5 -6 -9 -17 -9 -25 0 -9 -6 -28 -14
-43 -8 -15 -17 -40 -21 -56 -5 -26 -11 -30 -40 -30 -44 0 -83 -29 -91 -69 -5
-26 -9 -31 -23 -24 -9 4 -37 9 -62 10 -55 2 -94 -24 -104 -70 -5 -23 -12 -30
-28 -28 -12 2 -36 -1 -54 -5 -35 -8 -63 -54 -69 -112 -3 -31 -11 -91 -19 -144
-4 -27 -15 -111 -20 -150 -4 -43 -22 -173 -32 -235 -7 -48 -8 -114 -2 -135 5
-18 47 -54 67 -56 33 -5 159 -26 182 -30 41 -8 243 -42 290 -49 14 -2 68 -11
120 -20 52 -9 111 -19 130 -21 19 -3 42 -7 50 -10 8 -3 35 -8 60 -10 25 -3 54
-6 65 -8 45 -8 98 47 98 101 0 9 15 21 32 29 43 18 63 51 70 119 6 54 9 72 20
125 3 14 7 48 10 75 3 28 7 61 10 75 3 14 7 43 10 65 6 60 14 115 23 167 12
61 8 124 -8 144 -23 26 -46 35 -135 49 -115 18 -128 21 -122 32 3 5 8 37 12
73 4 36 8 66 10 68 2 2 -3 15 -10 29 -16 31 -22 19 109 233 53 85 110 179 127
208 30 51 37 56 153 111 127 61 139 62 131 6 -3 -16 -7 -73 -9 -125 -3 -52 -7
-135 -11 -185 -3 -49 -7 -126 -10 -170 -4 -86 -16 -274 -19 -315 -1 -14 -14
-63 -28 -110 -15 -47 -41 -132 -59 -190 -18 -58 -34 -109 -35 -115 -1 -5 -23
-77 -48 -160 -26 -82 -56 -179 -67 -214 -16 -52 -62 -126 -99 -161 -3 -3 -23
-27 -45 -55 -21 -27 -44 -54 -49 -60 -23 -22 -204 -252 -228 -290 -14 -22 -36
-50 -48 -63 -12 -12 -35 -48 -51 -79 -25 -47 -29 -64 -25 -112 10 -153 137
-246 264 -196 34 14 108 86 215 209 10 12 58 63 105 114 48 51 101 108 117
126 231 253 231 253 250 291 23 44 51 93 62 107 12 15 35 56 153 278 45 85 89
166 97 179 15 23 16 22 99 -105 46 -71 84 -133 84 -137 0 -4 9 -17 19 -29 11
-11 26 -32 33 -47 7 -14 40 -66 72 -116 51 -77 88 -147 88 -165 1 -3 2 -9 4
-15 1 -5 7 -26 13 -45 5 -19 24 -81 41 -137 17 -56 33 -111 35 -122 2 -11 9
-30 16 -43 7 -13 12 -25 11 -28 -2 -6 26 -108 35 -130 4 -8 8 -19 8 -25 1 -5
5 -17 8 -25 3 -8 18 -55 32 -105 31 -104 50 -142 85 -170 77 -63 203 -55 263
18 24 29 47 74 53 100 14 63 24 257 14 282 -4 11 -10 38 -14 60 -3 22 -7 49
-10 60 -4 19 -41 207 -49 250 -2 11 -7 31 -10 45 -4 14 -9 39 -11 55 -3 17
-17 84 -31 150 -14 66 -28 131 -31 144 -19 93 -106 293 -199 460 -148 265
-150 270 -150 353 0 43 2 78 6 78 3 0 5 10 5 23 1 20 7 77 20 182 6 46 11 94
19 185 4 35 9 68 11 72 3 4 25 -11 49 -35 162 -158 230 -214 304 -252 55 -27
147 -59 197 -69 16 -3 89 -20 162 -39 74 -19 153 -33 176 -32 87 4 159 65 172
146 15 91 13 153 -7 190 -18 36 -75 89 -96 89 -5 0 -23 6 -39 14 -45 21 -90
41 -199 86 -179 74 -166 64 -269 203 -53 70 -96 132 -96 137 0 6 -3 10 -8 10
-4 0 -77 96 -162 213 -85 117 -168 223 -183 236 -28 23 -28 23 -34 3 -5 -22
-29 -36 -44 -27 -4 3 -43 -47 -86 -112 -43 -65 -84 -124 -90 -131 -7 -7 -13
-17 -13 -22 0 -5 -6 -15 -13 -22 -7 -7 -27 -36 -45 -64 -18 -28 -41 -62 -52
-74 l-19 -22 -7 28 c-4 16 -11 35 -17 42 -5 6 -6 12 -2 12 4 0 1 8 -6 17 -8 9
-9 14 -4 11 6 -4 21 9 34 28 13 19 28 34 33 34 5 0 6 -4 3 -10 -3 -5 -2 -10 3
-10 10 0 59 65 100 131 12 19 24 55 26 80 3 24 8 60 11 79 3 19 7 56 9 82 4
45 3 46 -27 51 -18 3 -43 8 -57 11 -43 11 -111 15 -105 6 10 -17 -7 -40 -23
-32 -10 5 -23 7 -29 6 -7 -1 -17 -2 -21 -3 -4 0 -8 -13 -8 -28 0 -16 -4 -55
-8 -88 -8 -59 -12 -94 -16 -145 l-1 -25 -12 25 c-32 72 -67 154 -98 227 -32
77 -36 82 -64 83 -16 0 -50 -9 -74 -20z m326 -966 c-4 -4 -14 1 -22 12 -22 29
-18 41 7 17 12 -13 19 -26 15 -29z m-37 -364 c6 -11 8 -20 6 -20 -3 0 -10 9
-16 20 -6 11 -8 20 -6 20 3 0 10 -9 16 -20z m-1136 -117 c-3 -16 -6 -36 -8
-45 -4 -28 -16 -33 -17 -7 0 13 -2 33 -4 44 -4 18 9 34 27 35 4 0 5 -12 2 -27z
m-379 -4 c-3 -4 -12 -6 -20 -3 -8 4 -13 10 -10 15 3 4 12 6 20 3 8 -4 13 -10
10 -15z"/>
<path d="M4898 3464 c-3 -2 -15 -7 -27 -9 -11 -3 -30 -7 -40 -9 -25 -6 -92
-49 -111 -72 -34 -43 -71 -165 -65 -215 1 -8 5 -38 9 -68 13 -100 76 -182 162
-212 71 -25 190 -19 249 11 38 20 107 88 111 110 0 3 4 12 7 20 16 37 25 106
22 169 -7 156 -93 252 -235 267 -36 3 -68 8 -71 10 -3 2 -8 1 -11 -2z m151
-90 c62 -37 96 -118 92 -223 -6 -165 -82 -242 -227 -228 -63 6 -104 26 -136
69 -29 39 -38 71 -43 153 -6 122 38 210 120 241 52 19 152 13 194 -12z"/>
<path d="M4152 3451 c-8 -7 -29 -67 -67 -196 -14 -49 -29 -97 -32 -105 -4 -8
-8 -22 -10 -30 -7 -39 -42 -154 -43 -145 -1 6 -3 17 -5 25 -2 8 -6 26 -9 39
-3 13 -17 69 -32 125 -14 55 -28 108 -29 116 -2 8 -4 15 -5 15 -1 0 -3 7 -5
15 -8 40 -34 132 -38 137 -3 2 -21 3 -40 1 l-34 -3 49 -175 c125 -446 109
-400 140 -400 15 0 31 0 35 -1 3 0 12 17 19 38 31 96 74 238 73 243 0 3 6 23
14 45 9 22 24 69 33 104 l18 64 17 -59 c9 -32 29 -97 44 -144 15 -47 27 -89
29 -95 1 -5 4 -14 8 -20 6 -9 32 -100 45 -152 4 -19 12 -23 44 -23 34 0 39 3
45 28 3 15 8 34 11 42 8 20 11 30 17 60 3 14 20 74 37 134 17 60 32 117 34
127 2 11 6 23 9 27 3 5 7 19 10 33 2 13 11 46 20 74 17 54 17 52 -4 55 -42 6
-58 -1 -64 -27 -3 -16 -17 -71 -32 -123 -14 -52 -34 -131 -46 -175 -11 -44
-22 -87 -25 -95 -3 -8 -5 -26 -4 -40 1 -22 0 -23 -9 -7 -7 10 -14 30 -16 44
-3 15 -7 30 -10 35 -3 4 -7 16 -9 25 -3 18 -61 205 -72 233 -3 8 -7 20 -9 27
-1 6 -8 29 -15 50 -7 21 -12 41 -11 44 2 9 -66 17 -76 10z"/>
<path d="M5358 3450 l-25 -5 1 -290 1 -290 30 4 c17 1 32 4 35 6 3 2 5 56 5
119 l-1 116 65 0 66 -1 70 -119 c71 -121 85 -133 137 -122 15 3 15 5 0 35 -9
18 -20 34 -23 37 -9 7 -119 187 -119 194 0 3 3 5 8 4 13 -4 66 33 87 60 24 32
29 124 10 162 -19 36 -55 66 -95 79 -37 12 -211 19 -252 11z m223 -71 c55 -17
78 -76 56 -141 -15 -46 -58 -65 -151 -67 l-82 -2 2 113 c1 62 2 113 3 113 15
5 146 -7 172 -16z"/>
<path d="M8469 3466 c-2 -3 -33 -7 -67 -10 -76 -7 -124 -28 -172 -76 -60 -60
-82 -120 -80 -225 0 -78 7 -109 30 -156 47 -90 118 -131 239 -134 46 -2 102 2
125 9 34 10 41 16 41 36 -1 21 -5 24 -25 22 -14 -1 -63 -4 -110 -5 -73 -2 -91
1 -127 22 -24 14 -49 39 -60 60 -10 20 -20 38 -23 41 -20 20 -18 174 2 221 20
46 55 87 91 105 40 21 134 26 195 10 l52 -14 15 28 c14 28 14 29 -18 39 -17 6
-44 12 -59 15 -15 3 -32 7 -36 10 -5 3 -11 4 -13 2z"/>
<path d="M6557 3452 c-32 -3 -38 -7 -37 -25 1 -12 1 -26 0 -32 -4 -23 0 -237
5 -245 3 -5 1 -11 -4 -14 -6 -4 -6 -18 -1 -35 4 -16 6 -31 4 -34 -3 -3 -7
-134 -5 -179 1 -14 10 -18 36 -18 l34 0 3 112 3 113 60 2 c158 6 241 62 249
165 8 106 -45 169 -157 185 -49 6 -141 9 -190 5z m183 -66 c57 -9 96 -60 92
-119 -6 -75 -53 -105 -172 -111 -71 -4 -70 -6 -70 119 0 100 2 114 18 117 15
3 95 0 132 -6z"/>
<path d="M7067 3452 c-16 -3 -17 -23 -15 -293 l3 -290 128 0 c231 1 207 -3
207 31 l0 30 -135 0 -136 0 2 54 c1 29 -1 58 -5 64 -3 6 -2 13 3 17 6 3 7 16
3 28 -4 12 -6 37 -5 55 6 71 5 130 -1 140 -3 6 -2 13 3 17 7 3 7 15 1 29 -5
13 -7 26 -5 27 2 2 5 22 6 43 3 31 0 40 -16 46 -11 3 -28 5 -38 2z"/>
<path d="M7724 3451 c-5 -3 -25 -44 -43 -91 -19 -47 -45 -108 -58 -136 -12
-28 -23 -56 -23 -63 0 -6 -5 -19 -10 -29 -10 -17 -110 -253 -110 -260 0 -2 16
-2 36 0 35 3 37 5 71 88 19 47 37 87 39 89 3 3 57 5 121 5 133 1 122 8 168
-111 l28 -73 39 0 c22 0 37 3 35 8 -13 25 -45 102 -121 292 -47 118 -91 223
-96 232 -6 10 -10 25 -10 33 0 8 -6 15 -12 16 -7 0 -20 2 -29 4 -9 1 -20 0
-25 -4z m51 -148 c10 -32 23 -65 27 -73 4 -8 16 -38 26 -65 l18 -51 -90 2
c-50 1 -94 2 -98 3 -4 0 3 26 17 56 13 30 21 55 18 55 -3 0 -1 6 4 13 6 6 18
36 28 65 11 28 22 52 25 52 3 0 14 -26 25 -57z"/>
</g>
</svg>
